<?xml version="1.0" encoding="iso-8859-1"?>
<!-- Uploaded to: SVG Repo, www.svgrepo.com, Generator: SVG Repo Mixer Tools -->
<svg version="1.1" id="Layer_1" xmlns="http://www.w3.org/2000/svg" xmlns:xlink="http://www.w3.org/1999/xlink" 
	 viewBox="0 0 512 512" xml:space="preserve">
<path style="fill:#8CC1EA;" d="M327.421,22.87h95.434c15.675,0,28.39,12.715,28.39,28.39v432.35c0,15.675-12.715,28.39-28.39,28.39
	H89.158c-15.689,0-28.404-12.715-28.404-28.39V51.26c0-15.675,12.715-28.39,28.404-28.39h95.419"/>
<polyline style="fill:#FFFFFF;" points="327.421,78.553 392.043,78.553 392.043,456.317 119.957,456.317 119.957,78.553 
	184.585,78.553 "/>
<path style="fill:#F2CA7F;" d="M327.421,93.515H184.585v-65.12C184.585,12.714,197.298,0,212.98,0h86.044
	c15.682,0,28.395,12.714,28.395,28.395v65.12H327.421z"/>
<rect x="217.043" y="52.857" style="fill:#79B1D6;" width="77.911" height="18.311"/>
<g>
	<rect x="209.743" y="163.222" style="fill:#898686;" width="139.735" height="18.311"/>
	<rect x="209.743" y="370.096" style="fill:#898686;" width="139.735" height="18.311"/>
	<rect x="209.743" y="301.138" style="fill:#898686;" width="139.735" height="18.311"/>
	<rect x="209.743" y="232.18" style="fill:#898686;" width="139.735" height="18.311"/>
</g>
<g>
	<circle style="fill:#F2CA7F;" cx="171.669" cy="172.377" r="9.155"/>
	<circle style="fill:#F2CA7F;" cx="171.669" cy="241.335" r="9.155"/>
	<circle style="fill:#F2CA7F;" cx="171.669" cy="310.293" r="9.155"/>
	<circle style="fill:#F2CA7F;" cx="171.669" cy="379.251" r="9.155"/>
</g>
</svg>